PathFileType	4	(X/Y/Z)	/home/mitkof6/dev/sinergia_osimrl/data/02761/02761_PRE/experimental_data/static.trc
DataRate	CameraRate	NumFrames	NumMarkers	Units	OrigDataRate	OrigDataStartFrame	OrigNumFrames
100.000000	100.000000	4	45	mm	100.000000	70	189
Frame#	Time	C7			CLAV			LANK			LASI			LBHD			LELB			LFHD			LFIN			LHEE			LKNE			LKNI			LMED			LMET			LMIF			LPSI			LSHO			LTHI			LTIB			LTOE			LTTU			LWRA			LWRB			RANK			RASI			RBAK			RBHD			RELB			RFHD			RFIN			RHEE			RKNE			RKNI			RMED			RMET			RMIF			RPSI			RSHO			RTHI			RTIB			RTOE			RTTU			RWRA			RWRB			STRN			T10			
		X1	Y1	Z1	X2	Y2	Z2	X3	Y3	Z3	X4	Y4	Z4	X5	Y5	Z5	X6	Y6	Z6	X7	Y7	Z7	X8	Y8	Z8	X9	Y9	Z9	X10	Y10	Z10	X11	Y11	Z11	X12	Y12	Z12	X13	Y13	Z13	X14	Y14	Z14	X15	Y15	Z15	X16	Y16	Z16	X17	Y17	Z17	X18	Y18	Z18	X19	Y19	Z19	X20	Y20	Z20	X21	Y21	Z21	X22	Y22	Z22	X23	Y23	Z23	X24	Y24	Z24	X25	Y25	Z25	X26	Y26	Z26	X27	Y27	Z27	X28	Y28	Z28	X29	Y29	Z29	X30	Y30	Z30	X31	Y31	Z31	X32	Y32	Z32	X33	Y33	Z33	X34	Y34	Z34	X35	Y35	Z35	X36	Y36	Z36	X37	Y37	Z37	X38	Y38	Z38	X39	Y39	Z39	X40	Y40	Z40	X41	Y41	Z41	X42	Y42	Z42	X43	Y43	Z43	X44	Y44	Z44	X45	Y45	Z45	

71	0.7000000000000001	269.4289855957031	1211.651977539062	-284.8410034179685	381.5060119628906	1142.27197265625	-279.2070007324216	249.6069946289062	59.66600036621103	-431.8349914550781	353.4179992675781	818.2150268554689	-386.2869873046873	298.7330017089844	1339.739990234375	-349.700012207031	317.4840087890625	942.2340087890626	-540.9039916992185	424.0639953613281	1350.807983398438	-326.5289916992185	435.7409973144531	710.2880249023439	-668.8150024414061	195.0899963378906	35.09299850463876	-405.531005859375	279.7510070800781	440.404998779297	-425.959014892578	252.9109954833984	417.2839965820313	-306.5820007324218	245.5610046386719	65.47699737548837	-357.6069946289062	344.8330078125	27.72999954223642	-432.2000122070312	304.0130004882812	65.52200317382821	-384.2170104980469	233.5429992675781	877.6719970703126	-313.397003173828	309.18701171875	1165.032958984375	-413.9159851074216	270.2070007324219	580.4260253906251	-473.011993408203	255.1860046386719	248.5690002441407	-487.8080139160156	361.9020080566406	41.85800170898446	-389.4840087890625	314.4739990234375	359.7479858398438	-366.0520019531249	432.0799865722656	749.8629760742189	-610.0839843749999	378.1549987792969	744.4270019531251	-648.9639892578124	249.3320007324219	54.62599945068362	-111.9489974975586	374.7650146484375	803.9130249023438	-186.2259979248045	248.1329956054688	1089.012939453125	-181.2200012207029	259.6700134277344	1320.413940429688	-248.7590026855466	308.2030029296875	959.3170166015625	-28.94899940490701	398.0920104980469	1338.4580078125	-204.1289978027341	356.7569885253906	730.5709838867188	102.2009963989259	215.6869964599609	26.71199989318851	-161.3289947509766	273.2630004882812	434.9970092773438	-132.1479949951171	283.2799987792969	405.1380004882813	-250.5209960937499	287.489990234375	63.50199890136723	-176.9900054931641	336.239013671875	29.14200019836427	-63.90800094604491	310.3559875488281	71.23000335693362	-128.5809936523437	241.9199981689453	875.1079711914062	-226.7779998779295	311.6610107421875	1197.411987304688	-149.6629943847654	296.010009765625	572.0599975585938	-88.92299652099597	235.5859985351562	230.6490020751953	-72.15699768066401	366.6749877929688	43.35599899291994	-92.93499755859374	316.885986328125	353.9960021972657	-168.188003540039	330.2090148925781	763.3179931640625	58.76300048828142	386.8739929199219	773.4420166015625	62.59600067138689	420.2980041503906	1010.239013671875	-272.1140136718748	258.9010009765625	958.8369750976564	-269.7049865722654	
72	0.71	269.4450073242188	1211.631958007812	-284.9129943847653	381.5130004882812	1142.27294921875	-279.2680053710935	249.6390075683594	59.70600128173837	-431.8789978027344	353.4939880371094	818.2219848632814	-386.407012939453	298.7699890136719	1339.764038085938	-349.7290039062497	317.4580078125	942.2050170898439	-540.9459838867185	424.0870056152344	1350.786010742188	-326.5159912109372	435.6570129394531	710.2290039062501	-668.8579711914061	195.0890045166016	35.09600067138681	-405.5400085449219	279.7860107421875	440.3909912109376	-426.0520019531249	252.9080047607422	417.3039855957032	-306.6860046386718	245.5549926757812	65.48899841308602	-357.6239929199219	344.8359985351562	27.72699928283701	-432.2130126953125	304.0029907226562	65.51300048828134	-384.2359924316406	233.4850006103516	877.7249755859376	-313.5769958496092	309.1709899902344	1165.026977539062	-413.9800109863278	270.3139953613281	580.4180297851564	-473.1199951171874	255.2239990234375	248.5480041503907	-487.8489990234374	361.9200134277344	41.86299896240243	-389.4960021972656	314.5010070800781	359.7539978027344	-366.1260070800781	432.0220031738281	749.8170166015626	-610.1309814453124	378.093994140625	744.3839721679689	-648.9879760742186	249.322998046875	54.6279983520508	-111.9599990844726	374.77099609375	803.8920288085938	-186.3419952392576	248.1990051269531	1088.930053710938	-181.2799987792966	259.697998046875	1320.401977539062	-248.7899932861325	308.0859985351562	959.2030029296875	-29.14299964904764	398.0889892578125	1338.399047851562	-204.1289978027341	356.56298828125	730.3569946289062	101.8779983520509	215.6799926757812	26.7089996337891	-161.3359985351562	273.2699890136719	435.0039978027344	-132.2239990234374	283.3299865722656	405.1239929199219	-250.5970001220702	287.4939880371094	63.49399948120121	-176.9989929199219	336.239013671875	29.14100074768068	-63.90800094604491	310.3819885253906	71.24500274658206	-128.5910034179687	241.9960021972656	875.0969848632812	-226.9120025634764	311.6279907226562	1197.368041992188	-149.7259979248044	295.989013671875	572.0750122070312	-89.0210037231444	235.5910034179688	230.6730041503907	-72.19699859619135	366.6940002441406	43.37300109863283	-92.95999908447264	316.906005859375	353.9949951171876	-168.2489929199218	330.0690002441406	763.125	58.47800064086931	386.6910095214844	773.2360229492188	62.34700012207048	420.3500061035156	1010.252014160156	-272.1929931640623	258.9570007324219	958.8150024414064	-269.8420104980466	
73	0.72	269.4639892578125	1211.60302734375	-284.9909973144528	381.5180053710938	1142.274047851562	-279.3290100097654	249.6970062255859	59.79700088500986	-431.9519958496094	353.5539855957031	818.2310180664064	-386.5260009765623	298.8039855957031	1339.7919921875	-349.7640075683591	317.4230041503906	942.1699829101564	-540.9899902343748	424.1029968261719	1350.765014648438	-326.5069885253903	435.5910034179688	710.1660156250001	-668.8930053710936	195.0879974365234	35.09899902343759	-405.5509948730469	279.8139953613281	440.3810119628907	-426.1390075683593	252.9019927978516	417.3200073242188	-306.7839965820311	245.5509948730469	65.49900054931649	-357.6419982910156	344.8399963378906	27.71999931335459	-432.2260131835938	303.989990234375	65.4970016479493	-384.2520141601562	233.5119934082031	877.7440185546876	-313.7149963378905	309.1510009765625	1165.011962890625	-414.0400085449216	270.4010009765625	580.4080200195314	-473.2359924316405	255.2570037841797	248.529998779297	-487.8919982910156	361.9309997558594	41.86299896240243	-389.5069885253906	314.5180053710938	359.7560119628907	-366.1960144042968	431.9639892578125	749.7630004882814	-610.1699829101561	378.0440063476562	744.3359985351564	-649.0109863281249	249.3190002441406	54.62699890136721	-111.9720001220703	374.7789916992188	803.8690185546875	-186.4519958496092	248.468994140625	1088.781982421875	-181.2799987792966	259.7300109863281	1320.386962890625	-248.8280029296872	307.9779968261719	959.1019897460938	-29.32600021362283	398.0780029296875	1338.337036132812	-204.1300048828122	356.3710021972656	730.1630249023438	101.5690002441408	215.6739959716797	26.7040004730225	-161.3450012207031	273.2799987792969	435.0090026855469	-132.2989959716796	283.3729858398438	405.1099853515626	-250.6690063476562	287.4979858398438	63.48699951171879	-177.0079956054688	336.2369995117188	29.13800048828126	-63.90900039672851	310.4100036621094	71.2600021362305	-128.6020050048828	242.0800018310547	875.0809936523438	-227.0290069580076	311.5920104980469	1197.328979492188	-149.7929992675779	295.9939880371094	572.0910034179688	-89.11399841308581	235.5970001220703	230.6940002441407	-72.23500061035151	366.7279968261719	43.39699935913088	-93.00099945068358	316.9179992675781	353.9880065917969	-168.3040008544921	329.9230041503906	762.958984375	58.19900131225603	386.47900390625	773.0029907226562	62.13499832153337	420.4010009765625	1010.263000488281	-272.2650146484373	259.0230102539062	958.7899780273439	-269.960998535156	
74	0.73	269.4830017089844	1211.572998046875	-285.0690002441403	381.5190124511719	1142.27197265625	-279.388000488281	249.7539978027344	59.89599990844737	-432.0260009765625	353.5960083007812	818.2449951171876	-386.6419982910155	298.8359985351562	1339.821044921875	-349.8020019531247	317.3810119628906	942.1270141601564	-541.034973144531	424.114990234375	1350.745971679688	-326.502990722656	435.5459899902344	710.1030273437501	-668.9190063476561	195.0919952392578	35.10699844360361	-405.5639953613281	279.8349914550781	440.3760070800782	-426.220001220703	252.8950042724609	417.3359985351563	-306.8729858398436	245.5529937744141	65.51100158691415	-357.6619873046875	344.8469848632812	27.71500015258799	-432.2349853515625	303.9719848632812	65.47000122070321	-384.2630004882812	233.6540069580078	877.7189941406251	-313.7940063476561	309.1310119628906	1164.987060546875	-414.096008300781	270.468994140625	580.3989868164064	-473.3580017089843	255.2799987792969	248.5149993896486	-487.9349975585937	361.9330139160156	41.85800170898446	-389.5140075683594	314.5239868164062	359.7529907226563	-366.2590026855468	431.9100036621094	749.7039794921876	-610.2030029296874	378.0010070800781	744.2780151367189	-649.0330200195311	249.3209991455078	54.62900161743166	-111.9820022583008	374.7929992675781	803.843994140625	-186.5570068359373	248.8470001220703	1088.609008789062	-181.2510070800779	259.7579956054688	1320.369018554688	-248.8760070800778	307.8800048828125	959.0159912109375	-29.49399948120096	398.0589904785156	1338.274047851562	-204.1320037841794	356.1789855957031	729.9920043945312	101.2779998779298	215.6739959716797	26.70000076293949	-161.3549957275391	273.2909851074219	435.0130004882813	-132.3699951171874	283.406005859375	405.0929870605469	-250.7350006103515	287.5050048828125	63.48500061035161	-177.0149993896484	336.2369995117188	29.13599967956544	-63.91199874877929	310.4299926757812	71.26699829101565	-128.6100006103515	242.156005859375	875.0659790039062	-227.126998901367	311.5549926757812	1197.300048828125	-149.8650054931638	296.0190124511719	572.1019897460938	-89.19899749755847	235.6029968261719	230.7120056152344	-72.26899719238276	366.7669982910156	43.42300033569338	-93.0439987182617	316.9249877929688	353.9750061035157	-168.3520050048827	329.7860107421875	762.8109741210938	57.93000030517595	386.2650146484375	772.7869873046875	61.92800140380876	420.4429931640625	1010.268005371094	-272.3290100097654	259.0880126953125	958.7670288085939	-270.0620117187498	
